<mxfile host="app.diagrams.net" modified="2023-05-12T09:06:28.543Z" agent="Mozilla/5.0 (Windows NT 10.0; Win64; x64) AppleWebKit/537.36 (KHTML, like Gecko) Chrome/113.0.0.0 Safari/537.36" etag="HsNjHW7ch4E31mM_aYp2" version="21.1.5" type="device" pages="2">
  <diagram name="Page-1" id="2YBvvXClWsGukQMizWep">
    <mxGraphModel dx="2381" dy="3012" grid="1" gridSize="10" guides="1" tooltips="1" connect="1" arrows="1" fold="1" page="1" pageScale="1" pageWidth="850" pageHeight="1100" math="0" shadow="0">
      <root>
        <mxCell id="0" />
        <mxCell id="1" parent="0" />
        <mxCell id="4a7ey2yNWW6UeJblibQM-2" value="User&lt;br&gt;" style="shape=umlActor;verticalLabelPosition=bottom;verticalAlign=top;html=1;" vertex="1" parent="1">
          <mxGeometry x="-370" y="-200" width="30" height="60" as="geometry" />
        </mxCell>
        <mxCell id="4a7ey2yNWW6UeJblibQM-5" value="" style="html=1;points=[];perimeter=orthogonalPerimeter;outlineConnect=0;targetShapes=umlLifeline;portConstraint=eastwest;newEdgeStyle={&quot;edgeStyle&quot;:&quot;elbowEdgeStyle&quot;,&quot;elbow&quot;:&quot;vertical&quot;,&quot;curved&quot;:0,&quot;rounded&quot;:0};" vertex="1" parent="1">
          <mxGeometry x="-360" y="-100" width="10" height="850" as="geometry" />
        </mxCell>
        <mxCell id="4a7ey2yNWW6UeJblibQM-20" value="" style="html=1;points=[];perimeter=orthogonalPerimeter;outlineConnect=0;targetShapes=umlLifeline;portConstraint=eastwest;newEdgeStyle={&quot;edgeStyle&quot;:&quot;elbowEdgeStyle&quot;,&quot;elbow&quot;:&quot;vertical&quot;,&quot;curved&quot;:0,&quot;rounded&quot;:0};" vertex="1" parent="1">
          <mxGeometry x="-170" y="190" width="10" height="80" as="geometry" />
        </mxCell>
        <mxCell id="4a7ey2yNWW6UeJblibQM-21" value="setLocation()" style="html=1;verticalAlign=bottom;startArrow=oval;endArrow=block;startSize=8;edgeStyle=elbowEdgeStyle;elbow=vertical;curved=0;rounded=0;" edge="1" parent="1" target="4a7ey2yNWW6UeJblibQM-20">
          <mxGeometry relative="1" as="geometry">
            <mxPoint x="-350" y="190" as="sourcePoint" />
          </mxGeometry>
        </mxCell>
        <mxCell id="4a7ey2yNWW6UeJblibQM-24" value="" style="html=1;points=[];perimeter=orthogonalPerimeter;outlineConnect=0;targetShapes=umlLifeline;portConstraint=eastwest;newEdgeStyle={&quot;edgeStyle&quot;:&quot;elbowEdgeStyle&quot;,&quot;elbow&quot;:&quot;vertical&quot;,&quot;curved&quot;:0,&quot;rounded&quot;:0};" vertex="1" parent="1">
          <mxGeometry x="-170" y="310" width="10" height="80" as="geometry" />
        </mxCell>
        <mxCell id="4a7ey2yNWW6UeJblibQM-25" value="setPrice()" style="html=1;verticalAlign=bottom;startArrow=oval;endArrow=block;startSize=8;edgeStyle=elbowEdgeStyle;elbow=vertical;curved=0;rounded=0;" edge="1" parent="1" target="4a7ey2yNWW6UeJblibQM-24">
          <mxGeometry relative="1" as="geometry">
            <mxPoint x="-350" y="310" as="sourcePoint" />
          </mxGeometry>
        </mxCell>
        <mxCell id="4a7ey2yNWW6UeJblibQM-26" value="" style="html=1;points=[];perimeter=orthogonalPerimeter;outlineConnect=0;targetShapes=umlLifeline;portConstraint=eastwest;newEdgeStyle={&quot;edgeStyle&quot;:&quot;elbowEdgeStyle&quot;,&quot;elbow&quot;:&quot;vertical&quot;,&quot;curved&quot;:0,&quot;rounded&quot;:0};" vertex="1" parent="1">
          <mxGeometry x="-170" y="430" width="10" height="80" as="geometry" />
        </mxCell>
        <mxCell id="4a7ey2yNWW6UeJblibQM-27" value="setRating()" style="html=1;verticalAlign=bottom;startArrow=oval;endArrow=block;startSize=8;edgeStyle=elbowEdgeStyle;elbow=vertical;curved=0;rounded=0;" edge="1" parent="1" target="4a7ey2yNWW6UeJblibQM-26">
          <mxGeometry relative="1" as="geometry">
            <mxPoint x="-350" y="430" as="sourcePoint" />
          </mxGeometry>
        </mxCell>
        <mxCell id="4a7ey2yNWW6UeJblibQM-28" value="" style="html=1;points=[];perimeter=orthogonalPerimeter;outlineConnect=0;targetShapes=umlLifeline;portConstraint=eastwest;newEdgeStyle={&quot;edgeStyle&quot;:&quot;elbowEdgeStyle&quot;,&quot;elbow&quot;:&quot;vertical&quot;,&quot;curved&quot;:0,&quot;rounded&quot;:0};" vertex="1" parent="1">
          <mxGeometry x="-170" y="550" width="10" height="80" as="geometry" />
        </mxCell>
        <mxCell id="4a7ey2yNWW6UeJblibQM-29" value="setImage()" style="html=1;verticalAlign=bottom;startArrow=oval;endArrow=block;startSize=8;edgeStyle=elbowEdgeStyle;elbow=vertical;curved=0;rounded=0;" edge="1" parent="1" target="4a7ey2yNWW6UeJblibQM-28">
          <mxGeometry relative="1" as="geometry">
            <mxPoint x="-350" y="550" as="sourcePoint" />
          </mxGeometry>
        </mxCell>
        <mxCell id="4a7ey2yNWW6UeJblibQM-30" value="" style="html=1;points=[];perimeter=orthogonalPerimeter;outlineConnect=0;targetShapes=umlLifeline;portConstraint=eastwest;newEdgeStyle={&quot;edgeStyle&quot;:&quot;elbowEdgeStyle&quot;,&quot;elbow&quot;:&quot;vertical&quot;,&quot;curved&quot;:0,&quot;rounded&quot;:0};" vertex="1" parent="1">
          <mxGeometry x="-170" y="660" width="10" height="80" as="geometry" />
        </mxCell>
        <mxCell id="4a7ey2yNWW6UeJblibQM-31" value="commit()" style="html=1;verticalAlign=bottom;startArrow=oval;endArrow=block;startSize=8;edgeStyle=elbowEdgeStyle;elbow=vertical;curved=0;rounded=0;" edge="1" parent="1" target="4a7ey2yNWW6UeJblibQM-30">
          <mxGeometry relative="1" as="geometry">
            <mxPoint x="-350" y="670" as="sourcePoint" />
          </mxGeometry>
        </mxCell>
        <mxCell id="4a7ey2yNWW6UeJblibQM-32" value="" style="html=1;points=[];perimeter=orthogonalPerimeter;outlineConnect=0;targetShapes=umlLifeline;portConstraint=eastwest;newEdgeStyle={&quot;edgeStyle&quot;:&quot;elbowEdgeStyle&quot;,&quot;elbow&quot;:&quot;vertical&quot;,&quot;curved&quot;:0,&quot;rounded&quot;:0};" vertex="1" parent="1">
          <mxGeometry x="-170" y="60" width="10" height="80" as="geometry" />
        </mxCell>
        <mxCell id="4a7ey2yNWW6UeJblibQM-33" value="setName()" style="html=1;verticalAlign=bottom;startArrow=oval;endArrow=block;startSize=8;edgeStyle=elbowEdgeStyle;elbow=vertical;curved=0;rounded=0;" edge="1" parent="1" target="4a7ey2yNWW6UeJblibQM-32">
          <mxGeometry relative="1" as="geometry">
            <mxPoint x="-350" y="70" as="sourcePoint" />
          </mxGeometry>
        </mxCell>
        <mxCell id="4a7ey2yNWW6UeJblibQM-34" value="" style="html=1;points=[];perimeter=orthogonalPerimeter;outlineConnect=0;targetShapes=umlLifeline;portConstraint=eastwest;newEdgeStyle={&quot;edgeStyle&quot;:&quot;elbowEdgeStyle&quot;,&quot;elbow&quot;:&quot;vertical&quot;,&quot;curved&quot;:0,&quot;rounded&quot;:0};" vertex="1" parent="1">
          <mxGeometry x="-170" y="-50" width="10" height="80" as="geometry" />
        </mxCell>
        <mxCell id="4a7ey2yNWW6UeJblibQM-35" value="newPrivateDestinnation()" style="html=1;verticalAlign=bottom;startArrow=oval;endArrow=block;startSize=8;edgeStyle=elbowEdgeStyle;elbow=vertical;curved=0;rounded=0;" edge="1" parent="1" target="4a7ey2yNWW6UeJblibQM-34">
          <mxGeometry relative="1" as="geometry">
            <mxPoint x="-350" y="-50" as="sourcePoint" />
          </mxGeometry>
        </mxCell>
        <mxCell id="4a7ey2yNWW6UeJblibQM-38" value=":AddDestinationControl" style="whiteSpace=wrap;html=1;align=center;" vertex="1" parent="1">
          <mxGeometry x="40" y="-35" width="150" height="50" as="geometry" />
        </mxCell>
        <mxCell id="4a7ey2yNWW6UeJblibQM-39" value=":PrivateDestinationForm" style="whiteSpace=wrap;html=1;align=center;" vertex="1" parent="1">
          <mxGeometry x="-252.5" y="-180" width="175" height="50" as="geometry" />
        </mxCell>
        <mxCell id="4a7ey2yNWW6UeJblibQM-41" value="Use" style="endArrow=open;endSize=12;dashed=1;html=1;rounded=0;" edge="1" parent="1">
          <mxGeometry width="160" relative="1" as="geometry">
            <mxPoint x="-130" y="-10.5" as="sourcePoint" />
            <mxPoint x="30" y="-10.5" as="targetPoint" />
          </mxGeometry>
        </mxCell>
        <mxCell id="4a7ey2yNWW6UeJblibQM-42" value="&amp;lt;&amp;lt;create&amp;gt;&amp;gt;" style="text;html=1;align=center;verticalAlign=middle;resizable=0;points=[];autosize=1;strokeColor=none;fillColor=none;" vertex="1" parent="1">
          <mxGeometry x="-90" y="-50" width="80" height="30" as="geometry" />
        </mxCell>
        <mxCell id="4a7ey2yNWW6UeJblibQM-43" value="" style="html=1;points=[];perimeter=orthogonalPerimeter;outlineConnect=0;targetShapes=umlLifeline;portConstraint=eastwest;newEdgeStyle={&quot;edgeStyle&quot;:&quot;elbowEdgeStyle&quot;,&quot;elbow&quot;:&quot;vertical&quot;,&quot;curved&quot;:0,&quot;rounded&quot;:0};" vertex="1" parent="1">
          <mxGeometry x="130" y="660" width="10" height="80" as="geometry" />
        </mxCell>
        <mxCell id="4a7ey2yNWW6UeJblibQM-44" value="createDestination(name.price,location,rating,imege)" style="html=1;verticalAlign=bottom;startArrow=oval;endArrow=block;startSize=8;edgeStyle=elbowEdgeStyle;elbow=vertical;curved=0;rounded=0;" edge="1" target="4a7ey2yNWW6UeJblibQM-43" parent="1" source="4a7ey2yNWW6UeJblibQM-30">
          <mxGeometry relative="1" as="geometry">
            <mxPoint x="50" y="660" as="sourcePoint" />
            <mxPoint as="offset" />
          </mxGeometry>
        </mxCell>
        <mxCell id="JcFpLGrZ8TVpld4zW-Hg-1" value=":PrivateDestinationList" style="html=1;whiteSpace=wrap;" vertex="1" parent="1">
          <mxGeometry x="330" y="-37.5" width="140" height="55" as="geometry" />
        </mxCell>
        <mxCell id="JcFpLGrZ8TVpld4zW-Hg-2" value="" style="html=1;points=[];perimeter=orthogonalPerimeter;outlineConnect=0;targetShapes=umlLifeline;portConstraint=eastwest;newEdgeStyle={&quot;edgeStyle&quot;:&quot;elbowEdgeStyle&quot;,&quot;elbow&quot;:&quot;vertical&quot;,&quot;curved&quot;:0,&quot;rounded&quot;:0};" vertex="1" parent="1">
          <mxGeometry x="415" y="660" width="10" height="80" as="geometry" />
        </mxCell>
        <mxCell id="JcFpLGrZ8TVpld4zW-Hg-3" value="createDestination(name.price,location,rating,imege)" style="html=1;verticalAlign=bottom;startArrow=oval;endArrow=block;startSize=8;edgeStyle=elbowEdgeStyle;elbow=vertical;curved=0;rounded=0;" edge="1" target="JcFpLGrZ8TVpld4zW-Hg-2" parent="1">
          <mxGeometry relative="1" as="geometry">
            <mxPoint x="140" y="670" as="sourcePoint" />
            <Array as="points">
              <mxPoint x="280" y="670" />
            </Array>
          </mxGeometry>
        </mxCell>
        <mxCell id="JcFpLGrZ8TVpld4zW-Hg-6" value="Text" style="edgeLabel;html=1;align=center;verticalAlign=middle;resizable=0;points=[];" vertex="1" connectable="0" parent="JcFpLGrZ8TVpld4zW-Hg-3">
          <mxGeometry x="0.1768" y="-1" relative="1" as="geometry">
            <mxPoint as="offset" />
          </mxGeometry>
        </mxCell>
        <mxCell id="JcFpLGrZ8TVpld4zW-Hg-4" value=":PrivateDestination" style="html=1;whiteSpace=wrap;" vertex="1" parent="1">
          <mxGeometry x="550" y="672.5" width="140" height="55" as="geometry" />
        </mxCell>
        <mxCell id="JcFpLGrZ8TVpld4zW-Hg-9" value="Use" style="endArrow=open;endSize=12;dashed=1;html=1;rounded=0;entryX=0;entryY=0.5;entryDx=0;entryDy=0;" edge="1" parent="1" target="JcFpLGrZ8TVpld4zW-Hg-4">
          <mxGeometry width="160" relative="1" as="geometry">
            <mxPoint x="430" y="700" as="sourcePoint" />
            <mxPoint x="575" y="699.6" as="targetPoint" />
          </mxGeometry>
        </mxCell>
        <mxCell id="JcFpLGrZ8TVpld4zW-Hg-10" value="&amp;lt;&amp;lt;create&amp;gt;&amp;gt;" style="text;html=1;align=center;verticalAlign=middle;resizable=0;points=[];autosize=1;strokeColor=none;fillColor=none;" vertex="1" parent="1">
          <mxGeometry x="450" y="660" width="80" height="30" as="geometry" />
        </mxCell>
        <mxCell id="JcFpLGrZ8TVpld4zW-Hg-12" value="" style="endArrow=none;dashed=1;html=1;dashPattern=1 3;strokeWidth=2;rounded=0;entryX=0.6;entryY=1.1;entryDx=0;entryDy=0;entryPerimeter=0;" edge="1" parent="1" source="4a7ey2yNWW6UeJblibQM-43" target="4a7ey2yNWW6UeJblibQM-38">
          <mxGeometry width="50" height="50" relative="1" as="geometry">
            <mxPoint x="110" y="400" as="sourcePoint" />
            <mxPoint x="160" y="350" as="targetPoint" />
          </mxGeometry>
        </mxCell>
        <mxCell id="JcFpLGrZ8TVpld4zW-Hg-13" value="" style="endArrow=none;dashed=1;html=1;dashPattern=1 3;strokeWidth=2;rounded=0;" edge="1" parent="1" source="JcFpLGrZ8TVpld4zW-Hg-2">
          <mxGeometry width="50" height="50" relative="1" as="geometry">
            <mxPoint x="415" y="520" as="sourcePoint" />
            <mxPoint x="410" y="20" as="targetPoint" />
          </mxGeometry>
        </mxCell>
        <mxCell id="JcFpLGrZ8TVpld4zW-Hg-14" value="" style="endArrow=none;dashed=1;html=1;dashPattern=1 3;strokeWidth=2;rounded=0;" edge="1" parent="1">
          <mxGeometry width="50" height="50" relative="1" as="geometry">
            <mxPoint x="-160" y="810" as="sourcePoint" />
            <mxPoint x="-160" y="740" as="targetPoint" />
            <Array as="points" />
          </mxGeometry>
        </mxCell>
        <mxCell id="JcFpLGrZ8TVpld4zW-Hg-15" value="" style="endArrow=none;dashed=1;html=1;rounded=0;" edge="1" parent="1">
          <mxGeometry width="50" height="50" relative="1" as="geometry">
            <mxPoint x="140" y="870" as="sourcePoint" />
            <mxPoint x="140" y="740" as="targetPoint" />
            <Array as="points" />
          </mxGeometry>
        </mxCell>
        <mxCell id="JcFpLGrZ8TVpld4zW-Hg-17" value="" style="endArrow=none;dashed=1;html=1;rounded=0;" edge="1" parent="1">
          <mxGeometry width="50" height="50" relative="1" as="geometry">
            <mxPoint x="420" y="820" as="sourcePoint" />
            <mxPoint x="419.6" y="740" as="targetPoint" />
            <Array as="points" />
          </mxGeometry>
        </mxCell>
        <mxCell id="JcFpLGrZ8TVpld4zW-Hg-18" value="" style="endArrow=none;dashed=1;html=1;dashPattern=1 3;strokeWidth=2;rounded=0;" edge="1" parent="1">
          <mxGeometry width="50" height="50" relative="1" as="geometry">
            <mxPoint x="630" y="830" as="sourcePoint" />
            <mxPoint x="630" y="727.5" as="targetPoint" />
          </mxGeometry>
        </mxCell>
        <mxCell id="JcFpLGrZ8TVpld4zW-Hg-21" value="User" style="swimlane;fontStyle=0;childLayout=stackLayout;horizontal=1;startSize=26;fillColor=none;horizontalStack=0;resizeParent=1;resizeParentMax=0;resizeLast=0;collapsible=1;marginBottom=0;whiteSpace=wrap;html=1;" vertex="1" parent="1">
          <mxGeometry x="-370" y="1020" width="140" height="120" as="geometry" />
        </mxCell>
        <mxCell id="JcFpLGrZ8TVpld4zW-Hg-22" value="name&lt;br&gt;&lt;br&gt;country&lt;br&gt;&lt;br&gt;id" style="text;strokeColor=none;fillColor=none;align=left;verticalAlign=top;spacingLeft=4;spacingRight=4;overflow=hidden;rotatable=0;points=[[0,0.5],[1,0.5]];portConstraint=eastwest;whiteSpace=wrap;html=1;" vertex="1" parent="JcFpLGrZ8TVpld4zW-Hg-21">
          <mxGeometry y="26" width="140" height="94" as="geometry" />
        </mxCell>
        <mxCell id="JcFpLGrZ8TVpld4zW-Hg-25" value="PrivateDestinationList" style="html=1;whiteSpace=wrap;" vertex="1" parent="1">
          <mxGeometry x="-40" y="1050" width="140" height="50" as="geometry" />
        </mxCell>
        <mxCell id="JcFpLGrZ8TVpld4zW-Hg-26" value="Destination" style="swimlane;fontStyle=0;childLayout=stackLayout;horizontal=1;startSize=26;fillColor=none;horizontalStack=0;resizeParent=1;resizeParentMax=0;resizeLast=0;collapsible=1;marginBottom=0;whiteSpace=wrap;html=1;" vertex="1" parent="1">
          <mxGeometry x="300" y="1000" width="140" height="170" as="geometry" />
        </mxCell>
        <mxCell id="JcFpLGrZ8TVpld4zW-Hg-27" value="name" style="text;strokeColor=none;fillColor=none;align=left;verticalAlign=top;spacingLeft=4;spacingRight=4;overflow=hidden;rotatable=0;points=[[0,0.5],[1,0.5]];portConstraint=eastwest;whiteSpace=wrap;html=1;" vertex="1" parent="JcFpLGrZ8TVpld4zW-Hg-26">
          <mxGeometry y="26" width="140" height="26" as="geometry" />
        </mxCell>
        <mxCell id="JcFpLGrZ8TVpld4zW-Hg-28" value="location" style="text;strokeColor=none;fillColor=none;align=left;verticalAlign=top;spacingLeft=4;spacingRight=4;overflow=hidden;rotatable=0;points=[[0,0.5],[1,0.5]];portConstraint=eastwest;whiteSpace=wrap;html=1;" vertex="1" parent="JcFpLGrZ8TVpld4zW-Hg-26">
          <mxGeometry y="52" width="140" height="26" as="geometry" />
        </mxCell>
        <mxCell id="JcFpLGrZ8TVpld4zW-Hg-29" value="price&lt;br&gt;&lt;br&gt;rating&lt;br&gt;&lt;br&gt;image" style="text;strokeColor=none;fillColor=none;align=left;verticalAlign=top;spacingLeft=4;spacingRight=4;overflow=hidden;rotatable=0;points=[[0,0.5],[1,0.5]];portConstraint=eastwest;whiteSpace=wrap;html=1;" vertex="1" parent="JcFpLGrZ8TVpld4zW-Hg-26">
          <mxGeometry y="78" width="140" height="92" as="geometry" />
        </mxCell>
        <mxCell id="JcFpLGrZ8TVpld4zW-Hg-30" value="" style="endArrow=block;endFill=1;html=1;edgeStyle=orthogonalEdgeStyle;align=left;verticalAlign=top;rounded=0;" edge="1" parent="1">
          <mxGeometry x="-1" relative="1" as="geometry">
            <mxPoint x="-220" y="1070" as="sourcePoint" />
            <mxPoint x="-60" y="1070" as="targetPoint" />
            <Array as="points">
              <mxPoint x="-140" y="1070" />
              <mxPoint x="-140" y="1070" />
            </Array>
          </mxGeometry>
        </mxCell>
        <mxCell id="JcFpLGrZ8TVpld4zW-Hg-31" value="1" style="edgeLabel;resizable=0;html=1;align=left;verticalAlign=bottom;" connectable="0" vertex="1" parent="JcFpLGrZ8TVpld4zW-Hg-30">
          <mxGeometry x="-1" relative="1" as="geometry" />
        </mxCell>
        <mxCell id="JcFpLGrZ8TVpld4zW-Hg-32" value="" style="endArrow=block;endFill=1;html=1;edgeStyle=orthogonalEdgeStyle;align=left;verticalAlign=top;rounded=0;" edge="1" parent="1">
          <mxGeometry x="-1" relative="1" as="geometry">
            <mxPoint x="265" y="1074.6" as="sourcePoint" />
            <mxPoint x="100" y="1074.6" as="targetPoint" />
          </mxGeometry>
        </mxCell>
        <mxCell id="JcFpLGrZ8TVpld4zW-Hg-33" value="1" style="edgeLabel;resizable=0;html=1;align=left;verticalAlign=bottom;" connectable="0" vertex="1" parent="JcFpLGrZ8TVpld4zW-Hg-32">
          <mxGeometry x="-1" relative="1" as="geometry" />
        </mxCell>
        <mxCell id="JcFpLGrZ8TVpld4zW-Hg-38" value="*" style="text;html=1;align=center;verticalAlign=middle;resizable=0;points=[];autosize=1;strokeColor=none;fillColor=none;" vertex="1" parent="1">
          <mxGeometry x="105" y="1045" width="30" height="30" as="geometry" />
        </mxCell>
        <mxCell id="JcFpLGrZ8TVpld4zW-Hg-39" value="admin" style="html=1;whiteSpace=wrap;" vertex="1" parent="1">
          <mxGeometry x="-470" y="1370" width="110" height="50" as="geometry" />
        </mxCell>
        <mxCell id="JcFpLGrZ8TVpld4zW-Hg-40" value="user" style="html=1;whiteSpace=wrap;" vertex="1" parent="1">
          <mxGeometry x="-360" y="1250" width="110" height="50" as="geometry" />
        </mxCell>
        <mxCell id="JcFpLGrZ8TVpld4zW-Hg-41" value="client" style="html=1;whiteSpace=wrap;" vertex="1" parent="1">
          <mxGeometry x="-250" y="1370" width="110" height="50" as="geometry" />
        </mxCell>
        <mxCell id="JcFpLGrZ8TVpld4zW-Hg-42" value="private destination" style="html=1;whiteSpace=wrap;" vertex="1" parent="1">
          <mxGeometry x="390" y="1360" width="110" height="50" as="geometry" />
        </mxCell>
        <mxCell id="JcFpLGrZ8TVpld4zW-Hg-43" value="public destination" style="html=1;whiteSpace=wrap;" vertex="1" parent="1">
          <mxGeometry x="170" y="1360" width="110" height="50" as="geometry" />
        </mxCell>
        <mxCell id="JcFpLGrZ8TVpld4zW-Hg-44" value="destination" style="html=1;whiteSpace=wrap;" vertex="1" parent="1">
          <mxGeometry x="280" y="1240" width="110" height="50" as="geometry" />
        </mxCell>
        <mxCell id="JcFpLGrZ8TVpld4zW-Hg-45" value="" style="strokeWidth=2;html=1;shape=mxgraph.flowchart.annotation_2;align=left;labelPosition=right;pointerEvents=1;rotation=90;" vertex="1" parent="1">
          <mxGeometry x="-325" y="1220" width="50" height="230" as="geometry" />
        </mxCell>
        <mxCell id="JcFpLGrZ8TVpld4zW-Hg-46" value="" style="strokeWidth=2;html=1;shape=mxgraph.flowchart.annotation_2;align=left;labelPosition=right;pointerEvents=1;rotation=90;" vertex="1" parent="1">
          <mxGeometry x="310" y="1210" width="50" height="230" as="geometry" />
        </mxCell>
        <mxCell id="JcFpLGrZ8TVpld4zW-Hg-53" style="edgeStyle=orthogonalEdgeStyle;rounded=0;orthogonalLoop=1;jettySize=auto;html=1;" edge="1" parent="1" source="JcFpLGrZ8TVpld4zW-Hg-47" target="JcFpLGrZ8TVpld4zW-Hg-48">
          <mxGeometry relative="1" as="geometry" />
        </mxCell>
        <mxCell id="JcFpLGrZ8TVpld4zW-Hg-55" style="edgeStyle=orthogonalEdgeStyle;rounded=0;orthogonalLoop=1;jettySize=auto;html=1;exitX=0.75;exitY=1;exitDx=0;exitDy=0;entryX=0;entryY=0.5;entryDx=0;entryDy=0;" edge="1" parent="1" source="JcFpLGrZ8TVpld4zW-Hg-47" target="JcFpLGrZ8TVpld4zW-Hg-50">
          <mxGeometry relative="1" as="geometry" />
        </mxCell>
        <mxCell id="JcFpLGrZ8TVpld4zW-Hg-56" style="edgeStyle=orthogonalEdgeStyle;rounded=0;orthogonalLoop=1;jettySize=auto;html=1;exitX=0.25;exitY=1;exitDx=0;exitDy=0;entryX=0;entryY=0.5;entryDx=0;entryDy=0;" edge="1" parent="1" source="JcFpLGrZ8TVpld4zW-Hg-47" target="JcFpLGrZ8TVpld4zW-Hg-51">
          <mxGeometry relative="1" as="geometry" />
        </mxCell>
        <mxCell id="JcFpLGrZ8TVpld4zW-Hg-47" value="AddDestinationControl" style="whiteSpace=wrap;html=1;align=center;" vertex="1" parent="1">
          <mxGeometry x="-415" y="1540" width="140" height="40" as="geometry" />
        </mxCell>
        <mxCell id="JcFpLGrZ8TVpld4zW-Hg-54" style="edgeStyle=orthogonalEdgeStyle;rounded=0;orthogonalLoop=1;jettySize=auto;html=1;entryX=0;entryY=0.5;entryDx=0;entryDy=0;" edge="1" parent="1" source="JcFpLGrZ8TVpld4zW-Hg-48" target="JcFpLGrZ8TVpld4zW-Hg-49">
          <mxGeometry relative="1" as="geometry" />
        </mxCell>
        <mxCell id="JcFpLGrZ8TVpld4zW-Hg-48" value="AddDestinationForm" style="whiteSpace=wrap;html=1;align=center;" vertex="1" parent="1">
          <mxGeometry x="-150" y="1540" width="130" height="40" as="geometry" />
        </mxCell>
        <mxCell id="JcFpLGrZ8TVpld4zW-Hg-49" value="Destination" style="whiteSpace=wrap;html=1;align=center;" vertex="1" parent="1">
          <mxGeometry x="170" y="1540" width="150" height="40" as="geometry" />
        </mxCell>
        <mxCell id="JcFpLGrZ8TVpld4zW-Hg-50" value="User(client)" style="whiteSpace=wrap;html=1;align=center;" vertex="1" parent="1">
          <mxGeometry x="170" y="1620" width="150" height="40" as="geometry" />
        </mxCell>
        <mxCell id="JcFpLGrZ8TVpld4zW-Hg-51" value="PrivateDestinationList" style="whiteSpace=wrap;html=1;align=center;" vertex="1" parent="1">
          <mxGeometry x="170" y="1700" width="150" height="40" as="geometry" />
        </mxCell>
        <mxCell id="JcFpLGrZ8TVpld4zW-Hg-57" value="1" style="text;html=1;align=center;verticalAlign=middle;resizable=0;points=[];autosize=1;strokeColor=none;fillColor=none;" vertex="1" parent="1">
          <mxGeometry x="-85" y="1045" width="30" height="30" as="geometry" />
        </mxCell>
        <mxCell id="JcFpLGrZ8TVpld4zW-Hg-60" value="&lt;p class=&quot;MsoNormal&quot;&gt;&lt;br&gt;&lt;/p&gt;" style="text;html=1;align=center;verticalAlign=middle;resizable=0;points=[];autosize=1;strokeColor=none;fillColor=none;" vertex="1" parent="1">
          <mxGeometry x="-270" y="-685" width="20" height="50" as="geometry" />
        </mxCell>
        <mxCell id="JcFpLGrZ8TVpld4zW-Hg-63" value="&lt;h1&gt;Lab 3 diagrams&lt;/h1&gt;&lt;p class=&quot;MsoNormal&quot;&gt;IDENTIFY USE CASE NAME&lt;/p&gt;&lt;p class=&quot;MsoNormal&quot;&gt;&amp;nbsp;&lt;/p&gt;&lt;p class=&quot;MsoNormal&quot;&gt;USE CASE NAME:&amp;nbsp;&amp;nbsp;&amp;nbsp;&amp;nbsp;&amp;nbsp;&amp;nbsp;&amp;nbsp;&amp;nbsp;&amp;nbsp;&amp;nbsp;&amp;nbsp;&amp;nbsp;&amp;nbsp;&amp;nbsp;&amp;nbsp;&amp;nbsp;&amp;nbsp;&amp;nbsp;&amp;nbsp;&amp;nbsp;&amp;nbsp;&amp;nbsp;&amp;nbsp;&amp;nbsp;&amp;nbsp;&amp;nbsp;&amp;nbsp;&amp;nbsp;&amp;nbsp; ADD DESTINATION TO PRIVATE VACANTION LIST&lt;br&gt;&lt;/p&gt;&lt;p class=&quot;MsoNormal&quot;&gt;PARTICIPATING ACTOR:&amp;nbsp;&amp;nbsp;&amp;nbsp;&amp;nbsp;&amp;nbsp;&amp;nbsp;&amp;nbsp;&amp;nbsp;&amp;nbsp;&amp;nbsp;&amp;nbsp;&amp;nbsp;&amp;nbsp;&amp;nbsp;&amp;nbsp; Initiated by the user&lt;/p&gt;&lt;p class=&quot;MsoNormal&quot;&gt;FLOW OF EVENTS:&lt;/p&gt;&lt;p style=&quot;margin-left:2.0in;text-indent:-2.0in&quot; class=&quot;MsoNormal&quot;&gt;&amp;nbsp;&amp;nbsp;&amp;nbsp;&amp;nbsp;&amp;nbsp;&amp;nbsp;&amp;nbsp;&amp;nbsp;&amp;nbsp;&amp;nbsp;&amp;nbsp;&amp;nbsp;&amp;nbsp;&amp;nbsp;&amp;nbsp;&amp;nbsp;&amp;nbsp;&amp;nbsp;&amp;nbsp;&amp;nbsp;&amp;nbsp;&amp;nbsp;&amp;nbsp;&amp;nbsp;&amp;nbsp;&amp;nbsp;&amp;nbsp;&amp;nbsp;&amp;nbsp;&amp;nbsp;&amp;nbsp;&amp;nbsp;&amp;nbsp;&amp;nbsp;&amp;nbsp;&amp;nbsp;&amp;nbsp;&amp;nbsp;&amp;nbsp;&amp;nbsp;&amp;nbsp;&amp;nbsp;&amp;nbsp;&amp;nbsp;&amp;nbsp;&amp;nbsp;&amp;nbsp;&amp;nbsp;&amp;nbsp;&amp;nbsp;&amp;nbsp;&amp;nbsp;&amp;nbsp;&amp;nbsp;&amp;nbsp;&amp;nbsp;&amp;nbsp;&amp;nbsp;&amp;nbsp;&amp;nbsp;&amp;nbsp;&amp;nbsp;&amp;nbsp; 1.the user logs in to his account&lt;/p&gt;&lt;p style=&quot;margin-left:2.0in;text-indent:-2.0in&quot; class=&quot;MsoNormal&quot;&gt;&amp;nbsp;&amp;nbsp;&amp;nbsp;&amp;nbsp;&amp;nbsp;&amp;nbsp;&amp;nbsp;&amp;nbsp;&amp;nbsp;&amp;nbsp;&amp;nbsp;&amp;nbsp;&amp;nbsp;&amp;nbsp;&amp;nbsp;&amp;nbsp;&amp;nbsp;&amp;nbsp;&amp;nbsp;&amp;nbsp;&amp;nbsp;&amp;nbsp;&amp;nbsp;&amp;nbsp;&amp;nbsp;&amp;nbsp;&amp;nbsp;&amp;nbsp;&amp;nbsp;&amp;nbsp;&amp;nbsp;&amp;nbsp;&amp;nbsp;&amp;nbsp;&amp;nbsp;&amp;nbsp;&amp;nbsp;&amp;nbsp;&amp;nbsp;&amp;nbsp;&amp;nbsp;&amp;nbsp;&amp;nbsp;&amp;nbsp;&amp;nbsp;&amp;nbsp;&amp;nbsp;&amp;nbsp;&amp;nbsp;&amp;nbsp;&amp;nbsp;&amp;nbsp;&amp;nbsp;&amp;nbsp;&amp;nbsp;&amp;nbsp;&amp;nbsp;&amp;nbsp;&amp;nbsp;&amp;nbsp;&amp;nbsp;&amp;nbsp;&amp;nbsp; 2.he will be welcomed by a menu where he can choose to manage the vacation list&lt;/p&gt;&lt;p style=&quot;margin-left:2.0in;text-indent:-2.0in&quot; class=&quot;MsoNormal&quot;&gt;&amp;nbsp;&amp;nbsp;&amp;nbsp;&amp;nbsp;&amp;nbsp;&amp;nbsp;&amp;nbsp;&amp;nbsp;&amp;nbsp;&amp;nbsp;&amp;nbsp;&amp;nbsp;&amp;nbsp;&amp;nbsp;&amp;nbsp;&amp;nbsp;&amp;nbsp;&amp;nbsp;&amp;nbsp;&amp;nbsp;&amp;nbsp;&amp;nbsp;&amp;nbsp;&amp;nbsp;&amp;nbsp;&amp;nbsp;&amp;nbsp;&amp;nbsp;&amp;nbsp;&amp;nbsp;&amp;nbsp;&amp;nbsp;&amp;nbsp;&amp;nbsp;&amp;nbsp;&amp;nbsp;&amp;nbsp;&amp;nbsp;&amp;nbsp;&amp;nbsp;&amp;nbsp;&amp;nbsp;&amp;nbsp;&amp;nbsp;&amp;nbsp;&amp;nbsp;&amp;nbsp;&amp;nbsp;&amp;nbsp;&amp;nbsp;&amp;nbsp;&amp;nbsp;&amp;nbsp;&amp;nbsp;&amp;nbsp;&amp;nbsp;&amp;nbsp;&amp;nbsp;&amp;nbsp;&amp;nbsp;&amp;nbsp;&amp;nbsp;&amp;nbsp; 3.he will choose the add vacation to list option&lt;/p&gt;&lt;p style=&quot;margin-left:2.0in;text-indent:-2.0in&quot; class=&quot;MsoNormal&quot;&gt;&amp;nbsp; &amp;nbsp; &amp;nbsp; &amp;nbsp; &amp;nbsp; &amp;nbsp; &amp;nbsp; &amp;nbsp; &amp;nbsp; &amp;nbsp; &amp;nbsp; &amp;nbsp; &amp;nbsp; &amp;nbsp; &amp;nbsp; &amp;nbsp; &amp;nbsp; &amp;nbsp; &amp;nbsp; &amp;nbsp; &amp;nbsp; &amp;nbsp; &amp;nbsp; &amp;nbsp; &amp;nbsp; &amp;nbsp; &amp;nbsp; &amp;nbsp; &amp;nbsp; &amp;nbsp; &amp;nbsp; &amp;nbsp;4.a form field will appear asking for the information regarding the new vacation destination(the&amp;nbsp; &amp;nbsp; &amp;nbsp; &amp;nbsp; &amp;nbsp; &amp;nbsp; &amp;nbsp; &amp;nbsp; geolocation, a title, an image a description and the stay dates), then he can&lt;br&gt;&amp;nbsp; &amp;nbsp; &amp;nbsp; &amp;nbsp; &amp;nbsp;choose to click between a save or a discard destination button, if save: the&lt;br&gt;&amp;nbsp; &amp;nbsp; &amp;nbsp; &amp;nbsp; &amp;nbsp;destination will be added in the private user database with destinations; if&lt;br&gt;&amp;nbsp; &amp;nbsp; &amp;nbsp; &amp;nbsp; &amp;nbsp;discard: the operation will be aborted and the pop up will dissapear leaving&lt;br&gt;&amp;nbsp; &amp;nbsp; &amp;nbsp; &amp;nbsp; &amp;nbsp;the user in the previously mentioned menu&lt;/p&gt;&lt;p style=&quot;margin-left:2.0in;text-indent:-2.0in&quot; class=&quot;MsoNormal&quot;&gt;&amp;nbsp;&amp;nbsp;&amp;nbsp;&amp;nbsp;&amp;nbsp;&amp;nbsp;&amp;nbsp;&amp;nbsp;&amp;nbsp;&amp;nbsp;&amp;nbsp;&amp;nbsp;&amp;nbsp;&amp;nbsp;&amp;nbsp;&amp;nbsp;&amp;nbsp;&amp;nbsp;&amp;nbsp;&amp;nbsp;&amp;nbsp;&amp;nbsp;&amp;nbsp;&amp;nbsp;&amp;nbsp;&amp;nbsp;&amp;nbsp;&amp;nbsp;&amp;nbsp;&amp;nbsp;&amp;nbsp;&amp;nbsp;&amp;nbsp;&amp;nbsp;&amp;nbsp;&amp;nbsp;&amp;nbsp;&amp;nbsp;&amp;nbsp;&amp;nbsp;&amp;nbsp;&amp;nbsp;&amp;nbsp;&amp;nbsp;&amp;nbsp;&amp;nbsp;&amp;nbsp;&amp;nbsp;&amp;nbsp;&amp;nbsp;&amp;nbsp;&amp;nbsp;&amp;nbsp;&amp;nbsp;&amp;nbsp;&amp;nbsp;&amp;nbsp;&amp;nbsp;&amp;nbsp;&amp;nbsp;&amp;nbsp;&amp;nbsp;&amp;nbsp;&amp;nbsp;&amp;nbsp;&amp;nbsp;&amp;nbsp;&amp;nbsp;&amp;nbsp;&amp;nbsp;&amp;nbsp;&amp;nbsp;&amp;nbsp;&amp;nbsp;&amp;nbsp;&amp;nbsp;&amp;nbsp;&amp;nbsp;&amp;nbsp; -&lt;br&gt;&amp;nbsp; &amp;nbsp; &amp;nbsp; &amp;nbsp; &amp;nbsp;if any fields are missing the user will be warned and the app will wait for the&lt;br&gt;&amp;nbsp; &amp;nbsp; &amp;nbsp; &amp;nbsp; &amp;nbsp;user to fill these fields&lt;/p&gt;&lt;p style=&quot;margin-left:2.0in;text-indent:-2.0in&quot; class=&quot;MsoNormal&quot;&gt;&amp;nbsp;&amp;nbsp;&amp;nbsp;&amp;nbsp;&amp;nbsp;&amp;nbsp;&amp;nbsp;&amp;nbsp;&amp;nbsp;&amp;nbsp;&amp;nbsp;&amp;nbsp;&amp;nbsp;&amp;nbsp;&amp;nbsp;&amp;nbsp;&amp;nbsp;&amp;nbsp;&amp;nbsp;&amp;nbsp;&amp;nbsp;&amp;nbsp;&amp;nbsp;&amp;nbsp;&amp;nbsp;&amp;nbsp;&amp;nbsp;&amp;nbsp;&amp;nbsp;&amp;nbsp;&amp;nbsp;&amp;nbsp;&amp;nbsp;&amp;nbsp;&amp;nbsp;&amp;nbsp;&amp;nbsp;&amp;nbsp;&amp;nbsp;&amp;nbsp;&amp;nbsp;&amp;nbsp;&amp;nbsp;&amp;nbsp;&amp;nbsp;&amp;nbsp;&amp;nbsp;&amp;nbsp;&amp;nbsp;&amp;nbsp;&amp;nbsp;&amp;nbsp;&amp;nbsp;&amp;nbsp;&amp;nbsp;&amp;nbsp;&amp;nbsp;&amp;nbsp;&amp;nbsp;&amp;nbsp;&amp;nbsp;&amp;nbsp;&amp;nbsp; 5. a message will be displayed according to the&amp;nbsp;chosen option&lt;/p&gt;&lt;p style=&quot;margin-left:2.0in;text-indent:-2.0in&quot; class=&quot;MsoNormal&quot;&gt;&amp;nbsp;&amp;nbsp;&amp;nbsp;&amp;nbsp;&amp;nbsp;&amp;nbsp;&amp;nbsp;&amp;nbsp;&amp;nbsp;&amp;nbsp;&amp;nbsp;&amp;nbsp;&amp;nbsp;&amp;nbsp;&amp;nbsp;&amp;nbsp;&amp;nbsp;&amp;nbsp;&amp;nbsp;&amp;nbsp;&amp;nbsp;&amp;nbsp;&amp;nbsp;&amp;nbsp;&amp;nbsp;&amp;nbsp;&amp;nbsp;&amp;nbsp;&amp;nbsp;&amp;nbsp;&amp;nbsp;&amp;nbsp;&amp;nbsp;&amp;nbsp;&amp;nbsp;&amp;nbsp;&amp;nbsp;&amp;nbsp;&amp;nbsp;&amp;nbsp;&amp;nbsp;&amp;nbsp;&amp;nbsp;&amp;nbsp;&amp;nbsp;&amp;nbsp;&amp;nbsp;&amp;nbsp;&amp;nbsp;&amp;nbsp;&amp;nbsp;&amp;nbsp;&amp;nbsp;&amp;nbsp;&amp;nbsp;&amp;nbsp;&amp;nbsp;&amp;nbsp;&amp;nbsp;&amp;nbsp;&amp;nbsp;&amp;nbsp;&amp;nbsp; &lt;/p&gt;&lt;p style=&quot;margin-left:2.0in;text-indent:-2.0in&quot; class=&quot;MsoNormal&quot;&gt;&amp;nbsp;&amp;nbsp;&amp;nbsp;&amp;nbsp;&amp;nbsp;&amp;nbsp;&amp;nbsp;&amp;nbsp;&amp;nbsp;&amp;nbsp;&amp;nbsp;&amp;nbsp;&amp;nbsp;&amp;nbsp;&amp;nbsp;&amp;nbsp;&amp;nbsp;&amp;nbsp;&amp;nbsp;&amp;nbsp;&amp;nbsp;&amp;nbsp;&amp;nbsp;&amp;nbsp;&amp;nbsp;&amp;nbsp;&amp;nbsp;&amp;nbsp;&amp;nbsp;&amp;nbsp;&amp;nbsp;&amp;nbsp;&amp;nbsp;&amp;nbsp;&amp;nbsp;&amp;nbsp;&amp;nbsp;&amp;nbsp;&amp;nbsp;&amp;nbsp;&amp;nbsp;&amp;nbsp;&amp;nbsp;&amp;nbsp;&amp;nbsp;&amp;nbsp;&amp;nbsp;&amp;nbsp;&amp;nbsp;&amp;nbsp;&amp;nbsp;&amp;nbsp;&amp;nbsp;&amp;nbsp;&amp;nbsp;&amp;nbsp;&amp;nbsp;&amp;nbsp;&amp;nbsp;&amp;nbsp;&amp;nbsp;&amp;nbsp;&amp;nbsp; 6.after the database is updated the user is asked if he wishes to do sth else and if&lt;br&gt;not he ll go back to the main web page&lt;/p&gt;&lt;p style=&quot;margin-left:2.0in;text-indent:-2.0in&quot; class=&quot;MsoNormal&quot;&gt;&lt;br&gt;&lt;/p&gt;&lt;p style=&quot;margin-left:2.0in;text-indent:-2.0in&quot; class=&quot;MsoNormal&quot;&gt;ENTRY CONDITION:&amp;nbsp;&amp;nbsp;&amp;nbsp;&amp;nbsp;&amp;nbsp;&amp;nbsp;&amp;nbsp;&amp;nbsp;&amp;nbsp;&amp;nbsp;&amp;nbsp;&amp;nbsp;&amp;nbsp;&amp;nbsp;&amp;nbsp;&amp;nbsp;&amp;nbsp;&amp;nbsp;&amp;nbsp;&amp;nbsp;&amp;nbsp;&amp;nbsp;&amp;nbsp;&amp;nbsp; user logs in and chooses the add destinations from the manage destinations menu&lt;/p&gt;&lt;p style=&quot;margin-left:2.0in;text-indent:-2.0in&quot; class=&quot;MsoNormal&quot;&gt;&lt;br&gt;&lt;/p&gt;&lt;p style=&quot;margin-left:2.0in;text-indent:-2.0in&quot; class=&quot;MsoNormal&quot;&gt;EXIT CONDITION:&amp;nbsp;&amp;nbsp;&amp;nbsp;&amp;nbsp;&amp;nbsp;&amp;nbsp;&amp;nbsp;&amp;nbsp;&amp;nbsp;&amp;nbsp;&amp;nbsp;&amp;nbsp;&amp;nbsp;&amp;nbsp;&amp;nbsp;&amp;nbsp;&amp;nbsp;&amp;nbsp;&amp;nbsp;&amp;nbsp;&amp;nbsp;&amp;nbsp;&amp;nbsp;&amp;nbsp;&amp;nbsp;&amp;nbsp;&amp;nbsp;&amp;nbsp; the user click s the option that will bring him back to the main menu OR&lt;/p&gt;&lt;p style=&quot;margin-left:2.0in;text-indent:-2.0in&quot; class=&quot;MsoNormal&quot;&gt;&amp;nbsp; &amp;nbsp; &amp;nbsp; &amp;nbsp; &amp;nbsp; &amp;nbsp; &amp;nbsp; &amp;nbsp; &amp;nbsp; &amp;nbsp; &amp;nbsp; &amp;nbsp; &amp;nbsp; &amp;nbsp; &amp;nbsp; &amp;nbsp; &amp;nbsp; &amp;nbsp; &amp;nbsp; &amp;nbsp; &amp;nbsp; &amp;nbsp; &amp;nbsp; &amp;nbsp; &amp;nbsp; &amp;nbsp; &amp;nbsp; &amp;nbsp; &amp;nbsp; &amp;nbsp;The app is disabled and displays a message&lt;br&gt;denoting that there has been an error&lt;/p&gt;&lt;p&gt;&lt;br&gt;&lt;br&gt;&lt;br&gt;&lt;br&gt;&lt;br&gt;&lt;br&gt;&lt;br&gt;&lt;br&gt;&lt;br&gt;&lt;br&gt;&lt;br&gt;&lt;br&gt;&lt;br&gt;&lt;br&gt;&lt;br&gt;&lt;br&gt;&lt;br&gt;&lt;br&gt;&lt;br&gt;&lt;br&gt;&lt;br&gt;&lt;br&gt;&lt;br&gt;&lt;br&gt;&lt;br&gt;&lt;br&gt;&lt;br&gt;&lt;br&gt;&lt;br&gt;&lt;br&gt;&lt;br&gt;&lt;br&gt;&lt;/p&gt;&lt;p style=&quot;margin-left:2.0in;text-indent:-2.0in&quot; class=&quot;MsoNormal&quot;&gt;QUALITY&lt;br&gt;REQUIREMENTS:&amp;nbsp;&amp;nbsp;&amp;nbsp;&amp;nbsp;&amp;nbsp;&amp;nbsp;&amp;nbsp;&amp;nbsp;&amp;nbsp;&amp;nbsp;&amp;nbsp; if the user is&lt;br&gt;inactive for 20 seconds the operation will be aborted&lt;/p&gt;" style="text;html=1;strokeColor=none;fillColor=none;spacing=5;spacingTop=-20;whiteSpace=wrap;overflow=hidden;rounded=0;" vertex="1" parent="1">
          <mxGeometry x="-370" y="-1270" width="740" height="660" as="geometry" />
        </mxCell>
        <mxCell id="JcFpLGrZ8TVpld4zW-Hg-64" value="&lt;h1&gt;&lt;span style=&quot;background-color: initial;&quot;&gt;Entity objects&lt;/span&gt;&lt;/h1&gt;&lt;h1&gt;&lt;span style=&quot;font-size: 12px; font-weight: 400;&quot;&gt;User:&lt;/span&gt;&lt;/h1&gt;&lt;div&gt;&lt;span style=&quot;font-size: 12px; font-weight: 400;&quot;&gt;-definition: actor responsible for creating a new private destination&lt;/span&gt;&lt;/div&gt;&lt;div&gt;&lt;span style=&quot;font-size: 12px; font-weight: 400;&quot;&gt;-attributes and associations: account name,country, id&lt;/span&gt;&lt;/div&gt;&lt;div&gt;&lt;span style=&quot;font-size: 12px; font-weight: 400;&quot;&gt;&lt;br&gt;&lt;/span&gt;&lt;/div&gt;&lt;div&gt;&lt;span style=&quot;font-size: 12px; font-weight: 400;&quot;&gt;Private Destination:&lt;/span&gt;&lt;/div&gt;&lt;div&gt;&lt;span style=&quot;font-size: 12px; font-weight: 400;&quot;&gt;&lt;br&gt;&lt;/span&gt;&lt;/div&gt;&lt;div&gt;&lt;div style=&quot;border-color: var(--border-color);&quot;&gt;-definition: private destination that can be added and seen only by the user who created it&lt;/div&gt;&lt;div style=&quot;border-color: var(--border-color);&quot;&gt;&lt;span style=&quot;border-color: var(--border-color);&quot;&gt;-attributes and associations: name,location,price, rating, image&lt;/span&gt;&lt;/div&gt;&lt;/div&gt;&lt;div style=&quot;border-color: var(--border-color);&quot;&gt;&lt;span style=&quot;border-color: var(--border-color);&quot;&gt;&lt;br&gt;&lt;/span&gt;&lt;/div&gt;&lt;div style=&quot;border-color: var(--border-color);&quot;&gt;Private Destination&amp;nbsp; List :&lt;/div&gt;&lt;div style=&quot;border-color: var(--border-color);&quot;&gt;&lt;br&gt;&lt;/div&gt;&lt;div style=&quot;border-color: var(--border-color);&quot;&gt;&lt;div style=&quot;border-color: var(--border-color);&quot;&gt;-definition: list that contains all the private destinations&lt;/div&gt;&lt;div style=&quot;border-color: var(--border-color);&quot;&gt;&lt;span style=&quot;border-color: var(--border-color);&quot;&gt;-attributes and associations: list of private destinations&lt;/span&gt;&lt;/div&gt;&lt;/div&gt;&lt;div&gt;&lt;span style=&quot;font-size: 12px; font-weight: 400;&quot;&gt;&lt;br&gt;&lt;/span&gt;&lt;/div&gt;&lt;div&gt;&lt;span style=&quot;font-size: 12px; font-weight: 400;&quot;&gt;Boundary Objects:&lt;/span&gt;&lt;/div&gt;&lt;div&gt;&lt;span style=&quot;font-size: 12px; font-weight: 400;&quot;&gt;AddDestinationForm&lt;/span&gt;&lt;/div&gt;&lt;div&gt;&lt;span style=&quot;font-size: 12px; font-weight: 400;&quot;&gt;&lt;br&gt;&lt;/span&gt;&lt;/div&gt;&lt;div&gt;&lt;span style=&quot;font-size: 12px; font-weight: 400;&quot;&gt;Control Objects:&lt;/span&gt;&lt;/div&gt;&lt;div&gt;&lt;span style=&quot;font-size: 12px; font-weight: 400;&quot;&gt;AddDestinationControl&lt;/span&gt;&lt;/div&gt;" style="text;html=1;strokeColor=none;fillColor=none;spacing=5;spacingTop=-20;whiteSpace=wrap;overflow=hidden;rounded=0;" vertex="1" parent="1">
          <mxGeometry x="-380" y="-600" width="510" height="369" as="geometry" />
        </mxCell>
      </root>
    </mxGraphModel>
  </diagram>
  <diagram id="xU3pXwcRWvlCjbg8FOxz" name="Page-2">
    <mxGraphModel dx="1914" dy="1086" grid="1" gridSize="10" guides="1" tooltips="1" connect="1" arrows="1" fold="1" page="1" pageScale="1" pageWidth="827" pageHeight="1169" math="0" shadow="0">
      <root>
        <mxCell id="0" />
        <mxCell id="1" parent="0" />
      </root>
    </mxGraphModel>
  </diagram>
</mxfile>
